<svg width="10" height="11" viewBox="0 0 10 11" fill="none" xmlns="http://www.w3.org/2000/svg">
<path fill-rule="evenodd" clip-rule="evenodd" d="M7.56848 2.41008C7.43313 1.05589 6.33212 5.04618e-05 4.99395 5.04618e-05C4.30714 -0.00295495 3.64593 0.279279 3.15812 0.78436C2.73468 1.22279 2.47218 1.79778 2.41027 2.41008H2.40981C1.47223 2.41008 0.684512 3.12572 0.46321 4.3683L0.0627447 7.59681C-0.278136 9.96082 0.785711 11 2.86776 11H7.12949C9.0549 11 10.2057 9.82867 9.96942 7.72655L9.55599 4.38994C9.29095 3.1319 8.52351 2.41008 7.60613 2.41008H7.56848ZM6.79672 2.41008C6.66593 1.49685 5.90847 0.796302 4.99234 0.796298C4.50757 0.79418 4.04196 0.992922 3.69846 1.34858C3.41957 1.63735 3.23983 2.01024 3.18207 2.41008H6.79672ZM2.40981 3.20633H7.60613C8.14414 3.20633 8.61678 3.65088 8.80232 4.52647L9.19369 7.69852C9.42659 9.38617 8.65133 10.2038 7.12949 10.2038H2.86776C1.21987 10.2038 0.554832 9.55414 0.821161 7.70669L1.21946 4.49165C1.37165 3.6404 1.84943 3.20633 2.40981 3.20633ZM6.50799 4.68404C6.71945 4.68404 6.89088 4.86229 6.89088 5.08217C6.89088 5.28373 6.74683 5.4503 6.55994 5.47666L6.50799 5.4803H6.48462C6.27316 5.4803 6.10173 5.30205 6.10173 5.08217C6.10173 4.88061 6.24578 4.71404 6.43267 4.68768L6.48462 4.68404H6.50799ZM3.91421 5.08217C3.91421 4.86229 3.74278 4.68404 3.53132 4.68404H3.50795L3.456 4.68768C3.26911 4.71404 3.12506 4.88061 3.12506 5.08217C3.12506 5.30205 3.29649 5.4803 3.50795 5.4803H3.53132L3.58327 5.47666C3.77016 5.4503 3.91421 5.28373 3.91421 5.08217Z" fill="white"/>
</svg>
